<?xml version="1.0" encoding="utf-8"?>
<!-- Generator: Adobe Illustrator 26.0.2, SVG Export Plug-In . SVG Version: 6.00 Build 0)  -->
<svg version="1.1" id="Layer_1" xmlns="http://www.w3.org/2000/svg" xmlns:xlink="http://www.w3.org/1999/xlink" x="0px" y="0px"
	 viewBox="0 0 200 86.1" style="enable-background:new 0 0 200 86.1;" xml:space="preserve">
<style type="text/css">
	.st0{fill:#FC4174;}
	.st1{fill:#FFFFFF;}
</style>
<path class="st0" d="M189.7,86.1H10.3C4.6,86.1,0,81.5,0,75.8V10.3C0,4.6,4.6,0,10.3,0h179.3c5.7,0,10.3,4.6,10.3,10.3v65.4
	C200,81.5,195.4,86.1,189.7,86.1z"/>
<g>
	<path class="st1" d="M177.4,26.7v6.5c0,1.9-1.5,3.3-3.3,3.3s-3.2-1.4-3.2-3.3v-6.5h-6.6v6.6c0,1.7-1.3,3.2-3.3,3.2
		c-1.8,0-3.3-1.3-3.3-3.2v-6.6h-6.6v6.6c0,1.8-1.4,3.2-3.3,3.2c-1.6,0-3.2-1.3-3.2-3.2v-9.8h-13.1c-5.4,0-9.8,4.4-9.8,9.8
		c0,5.6,4.5,9.8,9.8,9.8h3.4v-6.6h-3.3c-1.7,0-3.2-1.3-3.2-3.3s1.5-3.3,3.3-3.3h6.5v3.3c0,5.4,4.4,9.8,9.8,9.8
		c2.4,0,4.8-0.9,6.6-2.6c1.9,1.7,4.1,2.6,6.6,2.6c2.4,0,4.8-0.9,6.6-2.6c1.9,1.7,4.1,2.6,6.6,2.6c5.6,0,9.7-4.6,9.7-10v-6.3
		C184.4,26.7,177.4,26.7,177.4,26.7z"/>
	<path class="st1" d="M117.1,33.2c0-5.1-4.3-10.8-11.5-9.7L117.1,12v-1.7h-7.6L93.4,26.7V30h14c1.5,0,3.2,1.3,3.2,3.3
		c0,2.1-1.8,3.3-3.2,3.3H87.7c-1.9,0-3.4-1.3-3.4-3.5c0-0.1,0-22.7,0-22.7h-6.6v22.9c0,1.9-1.4,3.2-3.3,3.3c-1.7,0-3.3-1.4-3.3-3.3
		v-6.6h-6.6v6.6c0,1.9-1.6,3.2-3.2,3.2h-3.9c1.4-4-0.1-7.2-1.2-8.8c-2-3-5.7-4.7-9.4-4.1L58.3,12v-1.8h-7.5L34.5,26.7V30h13.9
		c1.9,0,3.2,1.4,3.2,3.3c0,1.9-1.6,3.3-3.2,3.3H15.6v6.6h45.9c2.4,0,4.7-0.8,6.6-2.5c1.9,1.7,4.2,2.5,6.6,2.5c3.3,0,5.7-1.7,6.6-2.5
		c0.9,0.8,3.1,2.5,6.6,2.5h19.6C112.1,43,117.1,39.2,117.1,33.2z"/>
	<g>
		<polygon class="st1" points="62.5,45.2 62.3,45.2 62.3,45.5 62.3,50.4 62.3,50.7 62.5,50.7 67.5,50.7 67.8,50.7 67.8,50.4 
			67.8,45.5 67.8,45.2 67.5,45.2 		"/>
		<polygon class="st1" points="55.4,45.2 55.1,45.2 55.1,45.5 55.1,50.4 55.1,50.7 55.4,50.7 60.4,50.7 60.6,50.7 60.6,50.4 
			60.6,45.5 60.6,45.2 60.4,45.2 		"/>
	</g>
</g>
<g>
	<path class="st1" d="M25,74.6c-1.4,0-2.6-0.5-3.4-1.4c-0.9-1-1.2-2.2-1.2-3.7c0-1.2,0.2-2.5,0.7-3.8v-0.1l1.5,0.6v0.1
		c-0.4,1.2-0.7,2.3-0.7,3.3c0,1.1,0.3,1.9,0.8,2.5s1.2,0.9,2.2,0.9c0.4,0,0.9-0.1,1.3-0.2c0.9-0.2,1.5-0.4,1.9-0.6
		c0.4-0.1,0.8-0.4,1-0.7c0.3-0.3,0.4-0.7,0.4-1.2c0-0.2,0-0.4,0-0.6l-0.8-5.2l1.6-0.3l0.2,1.1c0.3,1.7,0.6,4.1,0.6,4.2l0,0l0,0
		c0,0.3,0.1,0.6,0.1,0.9c0,0.9-0.2,1.5-0.6,2.1s-1,1-1.5,1.2c-0.7,0.3-1.4,0.6-2.4,0.8C26,74.5,25.5,74.6,25,74.6z"/>
	<path class="st1" d="M30.6,65.3l-0.2-1L29,64.6l0.8,5.1c0,0.1,0,0.3,0,0.6c0,0.6-0.1,1-0.4,1.2s-0.6,0.6-1.1,0.7
		c-0.4,0.1-1.1,0.3-2,0.6c-0.5,0.1-1,0.2-1.3,0.2c-1,0-1.7-0.3-2.3-0.9c-0.5-0.8-0.7-1.5-0.7-2.7c0-1,0.2-2.1,0.7-3.3l-1.3-0.6
		c-0.5,1.3-0.7,2.6-0.7,3.7c0,1.5,0.4,2.8,1.2,3.7c0.9,1,1.9,1.3,3.4,1.3c0.5,0,1.1-0.1,1.6-0.2c1-0.2,1.8-0.5,2.4-0.8
		c0.7-0.3,1.2-0.7,1.5-1.2s0.6-1.2,0.6-2c0-0.3,0-0.6-0.1-0.9C31.1,69.5,30.9,68.2,30.6,65.3z"/>
	<rect x="24.6" y="63.5" class="st1" width="2.1" height="2.1"/>
	<rect x="24.7" y="63.6" class="st1" width="1.9" height="1.9"/>
	<rect x="54.2" y="71.4" class="st1" width="2.1" height="2.1"/>
	<rect x="54.3" y="71.5" class="st1" width="1.9" height="1.9"/>
	<path class="st1" d="M37.1,70c-0.9,0-1.4-0.1-1.9-0.4s-0.9-0.7-1.1-1.2c-0.2-0.6-0.4-1.2-0.4-2.2l-0.4-8.7l1.6-0.1l0.4,8.8
		c0,0.7,0.1,1.1,0.2,1.3s0.2,0.5,0.5,0.6c0.2,0.1,0.6,0.2,1.2,0.2h18.3c1.3,0,1.9-0.5,1.9-1.4c0-0.3,0-0.6-0.1-0.9l-0.8-2.9l1.5-0.5
		l0.8,2.9c0.1,0.5,0.2,0.9,0.2,1.3c0,1.1-0.4,1.8-1.1,2.4c-0.7,0.6-1.5,0.9-2.5,0.9L37.1,70L37.1,70z"/>
	<path class="st1" d="M58,62.7l-1.3,0.4l0.8,2.8c0,0.3,0,0.6,0,0.9c0,1.1-0.7,1.5-2,1.5h-1.2H54h-5.5h-0.2h-5.5h-0.2h-5.4H37
		c-0.6,0-1-0.1-1.2-0.2s-0.4-0.3-0.5-0.6c-0.1-0.3-0.2-0.8-0.2-1.3l-0.4-8.7l-1.4,0.1l0.4,8.6c0,1,0.2,1.6,0.4,2.2s0.6,1,1.1,1.2
		s1.1,0.4,1.9,0.4l0,0l0,0h0.1h5.5h0.2h5.5h0.2h5.5h0.2h1.2c1,0,1.8-0.3,2.5-0.8c0.7-0.6,1-1.3,1-2.3c0-0.4-0.1-0.8-0.2-1.2L58,62.7
		z"/>
	<rect x="68.4" y="60.6" class="st1" width="1.8" height="1.8"/>
	<rect x="68.5" y="60.7" class="st1" width="1.6" height="1.6"/>
	<rect x="65.2" y="60.6" class="st1" width="1.8" height="1.8"/>
	<rect x="65.3" y="60.7" class="st1" width="1.6" height="1.6"/>
	<path class="st1" d="M72.2,70L72.2,70c-0.9-0.1-1.6-0.4-2.1-0.9c-0.3,0.3-0.6,0.5-1,0.7s-0.9,0.3-1.4,0.3h-2.9
		c-0.9,0-1.4-0.1-1.9-0.4S62,69,61.8,68.5c-0.2-0.6-0.4-1.2-0.4-2.2L61,57.6l1.6-0.1l0.4,8.8c0,0.7,0.1,1.1,0.2,1.3
		c0.1,0.3,0.2,0.5,0.5,0.6c0.2,0.1,0.6,0.2,1.2,0.2h2.9c0.7,0,1.1-0.1,1.3-0.4c0.2-0.2,0.3-0.5,0.3-0.9l-0.2-2.5l1.6-0.2v2.3v0.1
		c0.1,0.5,0.2,0.9,0.4,1.1c0.2,0.2,0.6,0.3,1.2,0.3h28.3c0.7,0,1.1-0.1,1.2-0.4c0.2-0.3,0.3-0.6,0.3-1l-0.4-9.3l1.6-0.1l0.4,9.3
		c0,0.6-0.1,1.1-0.3,1.5c-0.2,0.5-0.6,0.9-1.1,1.2c-0.5,0.3-1.2,0.5-1.8,0.5L72.2,70L72.2,70z"/>
	<path class="st1" d="M102.1,57.5l0.4,9.2c0,0.4-0.1,0.8-0.3,1.1c-0.2,0.3-0.7,0.5-1.3,0.5h-0.3h-0.2h-5.5h-0.2h-5.5H89h-5.5h-0.2
		h-5.5h-0.2h-5.5c-0.6,0-1-0.1-1.2-0.3c-0.3-0.2-0.4-0.6-0.5-1.2v-0.1l-0.2-2.3l-1.4,0.1l0.2,2.3v0.1c0.1,1-0.5,1.4-1.7,1.4h-2.7
		h-0.2c-0.6,0-1-0.1-1.2-0.2s-0.4-0.3-0.5-0.6c-0.1-0.3-0.2-0.8-0.2-1.3l-0.4-8.7l-1.4,0.1l0.4,8.6c0,1,0.2,1.6,0.4,2.2
		s0.6,1,1.1,1.2s1.1,0.4,1.9,0.4l0,0l0,0h0.2h2.7c0.5,0,1-0.1,1.4-0.2c0.4-0.2,0.8-0.4,1.1-0.7c0.5,0.6,1.2,0.9,2.2,0.9l0,0h5.7H78
		h5.5h0.2h5.4h0.2h5.5H95h5.5h0.2h0.3c0.8,0,1.3-0.2,1.8-0.5s0.9-0.7,1.1-1.2s0.3-1,0.3-1.5l-0.4-9.2L102.1,57.5z"/>
	<path class="st1" d="M109.2,70c-1,0-1.7-0.2-2.2-0.6c-0.6-0.4-0.9-0.9-1-1.5c-0.1-0.3-0.1-0.7-0.1-1.2v-0.1h1.5v0.1
		c0,0.4,0,0.7,0.1,1c0,0.2,0.2,0.4,0.4,0.5c0.3,0.1,0.6,0.2,1.1,0.2h1.2c1.2,0,1.8-0.4,1.8-1.1c0-0.2,0-0.4-0.1-0.5
		c-0.2-0.7-0.6-1.4-1.2-2.4s-1.2-1.9-1.8-2.8l-0.1-0.1l1.2-1.1l0.1,0.1c0.8,1.1,1.4,2,2,3.1c0.6,1.1,1,2,1.2,2.7
		c0.1,0.3,0.1,0.6,0.1,1c0,0.9-0.3,1.5-1,2c-0.6,0.5-1.5,0.8-2.7,0.8h-0.5V70z"/>
	<path class="st1" d="M112.4,63.6c-0.6-1.1-1.2-2.1-2-3.1l-1.2,1c0.7,1,1.2,1.9,1.8,2.8c0.6,1,1,1.7,1.2,2.4
		c0.1,0.2,0.1,0.4,0.1,0.5c0,0.8-0.7,1.2-1.9,1.2h-1.2c-0.5,0-0.9-0.1-1.2-0.2c-0.3-0.1-0.4-0.3-0.5-0.6c-0.1-0.2-0.1-0.6-0.1-1H106
		c0,0.6,0,1,0.1,1.2c0.1,0.6,0.4,1.1,0.9,1.4c0.5,0.4,1.2,0.6,2.2,0.6h0.9c1.2,0,2.1-0.3,2.7-0.8s0.9-1.2,0.9-1.9
		c0-0.3,0-0.6-0.1-0.9C113.3,65.5,112.9,64.6,112.4,63.6z"/>
	<path class="st1" d="M123.5,70c-0.6,0-1.2-0.2-1.6-0.5c-0.5-0.3-0.9-0.7-1.2-1.2c-0.3-0.5-0.5-1.1-0.5-1.7c0-0.5,0.1-1.1,0.4-1.6
		c0.3-0.6,0.6-1.1,1.1-1.4l0.7-0.7l-0.7-0.6l1.2-1.2l2.2,2.2c0.6,0.6,1.1,1.2,1.3,1.7c0.3,0.6,0.4,1.2,0.4,1.8
		c0,0.6-0.2,1.2-0.5,1.7s-0.7,1-1.2,1.2C124.7,69.8,124.1,70,123.5,70z M122.8,64.6c-0.4,0.4-0.7,0.8-0.9,1.1
		c-0.2,0.3-0.3,0.6-0.3,1c0,0.5,0.2,0.9,0.5,1.2c0.3,0.3,0.8,0.5,1.2,0.5c0.5,0,0.9-0.2,1.2-0.5c0.3-0.3,0.5-0.7,0.5-1.2
		c0-0.4-0.1-0.7-0.3-1s-0.5-0.8-1-1.2l-0.5-0.5L122.8,64.6z"/>
	<path class="st1" d="M125,63.2l-2.1-2.1l-1,1.2l0.7,0.6l-0.8,0.8c-0.5,0.5-0.8,1-1.1,1.4c-0.3,0.5-0.4,1.1-0.4,1.5
		c0,0.6,0.1,1.2,0.4,1.6c0.3,0.5,0.7,0.9,1.2,1.2c0.5,0.3,1.1,0.5,1.6,0.5c0.6,0,1.2-0.2,1.6-0.5c0.5-0.3,0.9-0.7,1.2-1.2
		s0.4-1.1,0.4-1.6c0-0.7-0.1-1.2-0.4-1.7C126.1,64.3,125.6,63.8,125,63.2z M124.8,67.9c-0.4,0.4-0.8,0.5-1.2,0.5s-1-0.2-1.3-0.5
		c-0.4-0.4-0.6-0.8-0.6-1.2c0-0.3,0.1-0.7,0.3-1c0.2-0.3,0.5-0.7,0.9-1.1l0.8-0.8l0.5,0.5c0.5,0.5,0.9,1,1.1,1.2
		c0.2,0.3,0.3,0.7,0.3,1.1C125.3,67.1,125.1,67.5,124.8,67.9z"/>
	<path class="st1" d="M129.4,73.1L129.4,73.1c1.5-0.3,2.6-0.6,3.3-0.8c0.7-0.2,1.1-0.4,1.3-0.7c0.3-0.3,0.4-0.7,0.4-1.2
		c0-0.2,0-0.4,0-0.5v-0.2c-0.8,0.1-1.5,0.2-2.4,0.2c-0.6,0-1.2-0.2-1.6-0.5c-0.5-0.3-0.9-0.7-1.2-1.2s-0.4-1.1-0.4-1.7
		c0-0.7,0.1-1.2,0.4-1.8c0.3-0.6,0.7-1.1,1.2-1.4s1.1-0.6,1.7-0.6c1,0,1.7,0.4,2.4,1.1s1.1,1.6,1.2,2.8l0.3,3.1c0,0.4,0,0.6,0,0.8
		c0,0.9-0.2,1.6-0.7,2.1s-1.1,1-1.9,1.2s-2.1,0.6-3.6,1h-0.1L129.4,73.1z M132.1,64.6c-0.6,0-1,0.2-1.2,0.6
		c-0.3,0.4-0.5,0.9-0.5,1.4s0.1,0.9,0.4,1.2c0.3,0.3,0.7,0.5,1.2,0.5c0.8,0,1.5-0.1,2.2-0.2l-0.1-1.1c-0.1-0.8-0.3-1.3-0.7-1.7
		C133.1,64.8,132.6,64.6,132.1,64.6z"/>
	<path class="st1" d="M135.6,66.7c-0.1-1.2-0.5-2-1.2-2.8c-0.7-0.7-1.4-1.1-2.3-1.1c-0.7,0-1.2,0.2-1.7,0.5
		c-0.5,0.4-0.9,0.8-1.2,1.3c-0.3,0.6-0.4,1.2-0.4,1.8c0,0.7,0.1,1.2,0.4,1.7c0.3,0.5,0.7,0.9,1.2,1.2c0.5,0.3,1.1,0.4,1.6,0.4
		c0.9,0,1.6-0.1,2.5-0.2v0.3c0,0.1,0,0.3,0,0.5c0,0.6-0.2,1-0.5,1.2s-0.8,0.6-1.4,0.8c-0.7,0.2-1.7,0.4-3.2,0.8l0.3,1.5
		c1.6-0.3,2.8-0.7,3.6-1c0.9-0.3,1.4-0.7,1.9-1.2c0.4-0.5,0.7-1.2,0.7-2c0-0.1,0-0.4,0-0.8L135.6,66.7z M132,68.3
		c-0.5,0-1-0.2-1.2-0.5s-0.5-0.8-0.5-1.2c0-0.6,0.2-1.1,0.5-1.4s0.8-0.6,1.3-0.6s1,0.2,1.3,0.7c0.4,0.5,0.6,1.1,0.7,1.8l0.1,1.2
		C133.6,68.2,132.8,68.3,132,68.3z"/>
	<path class="st1" d="M136.5,73.1l0.9-0.3c0.8-0.2,1.3-0.4,1.7-0.6s0.7-0.4,1-0.7c0.3-0.3,0.4-0.7,0.4-1.2c0-0.1,0-0.3,0-0.5
		l-0.8-5.5l1.6-0.3l0.1,0.8c0,0.2,0,0.3,0.1,0.4l0.2,1.2c0.1,0.5,0.2,0.8,0.3,1.1c0.1,0.2,0.2,0.4,0.4,0.5s0.4,0.1,0.7,0.1H175
		c0.3,0,0.5-0.1,0.7-0.2s0.3-0.3,0.4-0.4c0.1-0.2,0.1-0.3,0.1-0.5s-0.1-0.4-0.2-0.7l-4.1-5.9l0.3-1.2l6.9-2.6l0.6,1.6l-5.8,2.1
		l3.4,4.9c0.4,0.6,0.6,1.2,0.6,1.9c0,0.4-0.1,0.7-0.2,1.1c-0.1,0.3-0.3,0.6-0.6,0.9c-0.5,0.6-1.2,0.8-2,0.8h-31.9
		c-0.3,0-0.6,0-0.9-0.1c0,0.2,0,0.5,0,0.7c0,0.8-0.2,1.4-0.6,1.9c-0.4,0.5-0.9,1-1.4,1.2c-0.6,0.3-1.3,0.6-2.3,0.9l-0.9,0.3
		L136.5,73.1z"/>
	<path class="st1" d="M173.5,60.4l5.9-2.1l-0.5-1.4l-6.8,2.5l-0.3,1.2l4.2,5.9c0.1,0.2,0.2,0.5,0.2,0.7s0,0.4-0.1,0.6
		s-0.2,0.3-0.4,0.4c-0.2,0.2-0.4,0.2-0.8,0.2h-3.6h-0.2h-5.5h-0.2H160h-0.2h-5.5h-0.2h-5.5h-0.2H143h-0.1c-0.3,0-0.6,0-0.7-0.1
		c-0.2-0.1-0.3-0.3-0.4-0.5c-0.1-0.2-0.2-0.6-0.3-1.1l-0.2-1.2c0-0.1-0.1-0.2-0.1-0.4l-0.1-0.7l-1.4,0.2l0.8,5.4c0,0.2,0,0.4,0,0.5
		c0,0.5-0.1,1-0.4,1.2c-0.3,0.3-0.6,0.6-1,0.7c-0.4,0.2-1,0.4-1.7,0.6l-0.8,0.2l0.4,1.5l0.8-0.2c0.9-0.3,1.6-0.5,2.2-0.9
		c0.6-0.3,1.1-0.7,1.4-1.2c0.4-0.5,0.5-1.2,0.5-1.9c0-0.2,0-0.5-0.1-0.8c0.3,0.1,0.6,0.1,1,0.1l0,0l0,0h0.1h5.5h0.2h5.5h0.2h5.5h0.2
		h5.5h0.2h5.5h0.2h3.6c0.9,0,1.4-0.3,1.9-0.8c0.2-0.2,0.4-0.5,0.6-0.8c0.1-0.3,0.2-0.7,0.2-1c0-0.7-0.2-1.2-0.6-1.8L173.5,60.4z"/>
	<polygon class="st1" points="172.1,56.6 176.8,54.9 177.3,56 172.5,57.7 	"/>
	<polygon class="st1" points="177.2,56 176.8,54.9 172.2,56.6 172.6,57.6 	"/>
</g>
<g id="Layer_2_00000137114130912863149740000015990831475924230052_">
</g>
<g id="Layer_3">
</g>
</svg>
