<?xml version="1.0" standalone="no"?>
<!DOCTYPE svg PUBLIC "-//W3C//DTD SVG 20010904//EN"
 "http://www.w3.org/TR/2001/REC-SVG-20010904/DTD/svg10.dtd">
<svg version="1.0" xmlns="http://www.w3.org/2000/svg"
 width="4500.000000pt" height="1250.000000pt" viewBox="0 0 4500.000000 1250.000000"
 preserveAspectRatio="xMidYMid meet">

<g transform="translate(0.000000,1250.000000) scale(0.100000,-0.100000)"
fill="#FC4174" stroke="none">
<path d="M17108 8313 l-3 -2888 -23 -70 c-77 -228 -218 -394 -417 -490 -122
-59 -188 -76 -335 -82 -107 -5 -138 -2 -210 16 -294 74 -516 295 -591 589 -18
71 -19 120 -19 934 l0 858 -805 0 -804 0 -4 -872 c-3 -977 2 -909 -78 -1075
-79 -166 -218 -302 -390 -382 -150 -71 -151 -71 -741 -71 -291 0 -528 2 -528
3 0 2 13 48 30 103 39 130 76 312 91 452 17 161 7 473 -20 627 -139 788 -619
1435 -1316 1775 -239 117 -467 188 -720 226 -132 19 -435 25 -589 11 l-89 -8
1391 1397 1392 1398 0 213 0 213 -918 0 -917 0 -2003 -2003 -2002 -2002 0
-403 0 -402 1745 0 c1552 0 1754 -2 1822 -16 310 -64 546 -302 614 -619 18
-86 16 -265 -5 -350 -10 -38 -40 -115 -66 -170 -81 -165 -197 -282 -365 -365
-55 -27 -131 -58 -170 -67 -67 -17 -272 -18 -4143 -14 l-4072 4 0 -807 0 -806
5752 3 c5432 2 5759 3 5853 20 153 27 308 66 435 109 240 82 531 245 734 411
l79 65 76 -65 c166 -141 419 -291 635 -377 501 -201 1103 -220 1626 -51 320
103 584 249 840 463 l35 30 80 -65 c351 -284 776 -466 1220 -525 149 -19 5308
-19 5440 0 816 122 1501 613 1851 1325 114 234 190 490 226 767 15 122 15 470
-1 580 -57 404 -185 748 -396 1065 -284 429 -682 748 -1146 919 -343 126 -786
174 -1166 126 -42 -6 -79 -8 -82 -5 -3 3 628 639 1402 1413 l1407 1407 0 208
0 207 -924 0 -923 0 -1992 -2007 -1991 -2008 0 -402 0 -403 1750 0 c1914 0
1818 3 1968 -57 76 -31 194 -106 258 -165 90 -83 172 -219 216 -358 20 -65 23
-95 23 -225 -1 -142 -2 -155 -32 -242 -38 -109 -75 -176 -140 -258 -99 -122
-270 -231 -438 -278 l-80 -22 -2435 -3 c-1731 -2 -2467 0 -2545 8 -214 22
-373 95 -515 239 -73 73 -94 102 -137 191 -98 198 -87 -158 -90 3108 l-3 2882
-805 0 -805 0 -2 -2887z"/>
<path d="M30050 7968 c-222 -20 -511 -96 -721 -188 -685 -301 -1204 -921
-1374 -1645 -47 -201 -60 -315 -60 -560 0 -248 13 -361 62 -570 202 -858 872
-1541 1727 -1760 256 -66 286 -68 879 -72 l537 -4 0 800 0 801 -403 0 c-221 0
-441 5 -487 11 -276 34 -523 212 -640 460 -98 210 -98 468 0 678 86 182 241
328 432 404 146 59 122 57 1045 64 l852 6 4 -534 c4 -574 7 -616 63 -847 161
-660 584 -1216 1182 -1552 434 -244 970 -344 1467 -275 444 62 835 234 1199
530 96 77 109 85 125 73 10 -7 61 -47 112 -89 303 -247 689 -420 1094 -490
171 -30 522 -37 695 -15 456 60 857 230 1203 510 55 45 105 85 112 90 9 7 32
-7 76 -46 292 -254 675 -442 1066 -523 227 -47 563 -59 790 -30 783 103 1444
580 1797 1298 90 182 136 304 181 481 80 315 85 394 85 1374 l0 822 -800 0
-800 0 0 -784 c0 -481 -4 -824 -11 -887 -17 -172 -76 -314 -180 -440 -70 -84
-148 -142 -264 -199 -209 -101 -408 -115 -621 -41 -263 90 -460 317 -519 596
-12 59 -15 209 -15 913 l0 842 -805 0 -805 0 0 -840 c0 -727 -2 -851 -16 -917
-53 -257 -231 -476 -469 -576 -112 -47 -182 -60 -315 -61 -154 0 -226 17 -370
87 -93 45 -116 62 -201 146 -82 82 -103 110 -142 191 -26 52 -57 131 -69 175
-22 79 -22 91 -26 938 l-3 857 -799 0 -799 0 -3 -862 -3 -863 -28 -90 c-52
-165 -144 -304 -265 -401 -71 -56 -236 -137 -322 -158 -404 -97 -822 138 -954
536 -34 104 -36 168 -36 1411 l0 1237 -1682 -1 c-926 -1 -1726 -6 -1778 -11z"/>
<path d="M11560 1970 l0 -670 665 0 665 0 0 670 0 670 -665 0 -665 0 0 -670z"/>
<path d="M13300 1970 l0 -670 665 0 665 0 0 670 0 670 -665 0 -665 0 0 -670z"/>
</g>
</svg>
